<?xml version="1.0" encoding="UTF-8"?>
<!DOCTYPE svg PUBLIC "-//W3C//DTD SVG 1.1//EN" "http://www.w3.org/Graphics/SVG/1.1/DTD/svg11.dtd">
<svg xmlns="http://www.w3.org/2000/svg" version="1.1" width="1024px" height="1024px" style="shape-rendering:geometricPrecision; text-rendering:geometricPrecision; image-rendering:optimizeQuality; fill-rule:evenodd; clip-rule:evenodd" xmlns:xlink="http://www.w3.org/1999/xlink">
<g><path style="opacity:1" fill="#000000" d="M 76.5,201.5 C 366.5,201.333 656.5,201.5 946.5,202C 947.333,202.833 948.167,203.667 949,204.5C 949.667,227.833 949.667,251.167 949,274.5C 948.167,275.333 947.333,276.167 946.5,277C 656.5,277.667 366.5,277.667 76.5,277C 75.6667,276.167 74.8333,275.333 74,274.5C 73.3333,251.167 73.3333,227.833 74,204.5C 75.045,203.627 75.8783,202.627 76.5,201.5 Z"/></g>
<g><path style="opacity:1" fill="#fef400" d="M 79.5,207.5 C 367.5,207.5 655.5,207.5 943.5,207.5C 943.5,228.833 943.5,250.167 943.5,271.5C 655.5,271.5 367.5,271.5 79.5,271.5C 79.5,250.167 79.5,228.833 79.5,207.5 Z"/></g>
<g><path style="opacity:1" fill="#fef300" d="M 76.5,345.5 C 153.167,345.333 229.834,345.5 306.5,346C 307.333,346.833 308.167,347.667 309,348.5C 309.667,371.833 309.667,395.167 309,418.5C 308.167,419.333 307.333,420.167 306.5,421C 280.835,421.5 255.169,421.667 229.5,421.5C 229.667,484.501 229.5,547.501 229,610.5C 228.167,611.333 227.333,612.167 226.5,613C 203.167,613.667 179.833,613.667 156.5,613C 155.667,612.167 154.833,611.333 154,610.5C 153.5,547.501 153.333,484.501 153.5,421.5C 127.831,421.667 102.165,421.5 76.5,421C 75.6667,420.167 74.8333,419.333 74,418.5C 73.3333,395.167 73.3333,371.833 74,348.5C 75.045,347.627 75.8783,346.627 76.5,345.5 Z"/></g>
<g><path style="opacity:1" fill="#f4ea00" d="M 384.5,345.5 C 417.835,345.333 451.168,345.5 484.5,346C 485.333,346.833 486.167,347.667 487,348.5C 515.906,434.552 544.406,520.718 572.5,607C 572.833,609.667 571.833,611.667 569.5,613C 544.5,613.667 519.5,613.667 494.5,613C 492.951,611.786 491.785,610.286 491,608.5C 486.359,594.242 481.525,580.076 476.5,566C 449.835,565.5 423.169,565.333 396.5,565.5C 392.469,580.618 387.969,595.618 383,610.5C 382.167,611.333 381.333,612.167 380.5,613C 355.833,613.667 331.167,613.667 306.5,613C 304.051,611.137 303.051,608.637 303.5,605.5C 328.95,519.648 355.117,433.981 382,348.5C 383.045,347.627 383.878,346.627 384.5,345.5 Z M 434.5,442.5 C 435.117,442.611 435.617,442.944 436,443.5C 440.975,458.758 446.141,473.924 451.5,489C 441.151,489.832 430.817,489.666 420.5,488.5C 425.479,473.245 430.146,457.912 434.5,442.5 Z"/></g>
<g><path style="opacity:1" fill="#f3e800" d="M 838.5,603.5 C 838.599,606.237 838.265,608.904 837.5,611.5C 837.389,612.117 837.056,612.617 836.5,613C 808.5,613.667 780.5,613.667 752.5,613C 738.449,593.056 724.783,572.889 711.5,552.5C 698.217,572.889 684.551,593.056 670.5,613C 642.5,613.667 614.5,613.667 586.5,613C 583.114,609.627 582.614,605.794 585,601.5C 611.697,560.968 638.197,520.302 664.5,479.5C 638.197,438.698 611.697,398.032 585,357.5C 582.614,353.206 583.114,349.373 586.5,346C 614.5,345.333 642.5,345.333 670.5,346C 684.551,365.944 698.217,386.111 711.5,406.5C 724.783,386.111 738.449,365.944 752.5,346C 780.5,345.333 808.5,345.333 836.5,346C 839.886,349.373 840.386,353.206 838,357.5C 811.303,398.032 784.803,438.698 758.5,479.5C 785.613,520.6 812.28,561.933 838.5,603.5 Z"/></g>
<g><path style="opacity:1" fill="#fef300" d="M 876.5,345.5 C 899.836,345.333 923.169,345.5 946.5,346C 947.333,346.833 948.167,347.667 949,348.5C 949.667,435.833 949.667,523.167 949,610.5C 948.167,611.333 947.333,612.167 946.5,613C 923.167,613.667 899.833,613.667 876.5,613C 875.667,612.167 874.833,611.333 874,610.5C 873.333,523.167 873.333,435.833 874,348.5C 875.045,347.627 875.878,346.627 876.5,345.5 Z"/></g>
<g><path style="opacity:1" fill="#000000" d="M 79.5,351.5 C 154.167,351.5 228.833,351.5 303.5,351.5C 303.5,372.833 303.5,394.167 303.5,415.5C 278.164,415.333 252.831,415.5 227.5,416C 225.667,416.5 224.5,417.667 224,419.5C 223.5,482.166 223.333,544.832 223.5,607.5C 202.167,607.5 180.833,607.5 159.5,607.5C 159.667,544.832 159.5,482.166 159,419.5C 158.5,417.667 157.333,416.5 155.5,416C 130.169,415.5 104.836,415.333 79.5,415.5C 79.5,394.167 79.5,372.833 79.5,351.5 Z"/></g>
<g><path style="opacity:1" fill="#000000" d="M 388.5,351.5 C 419.174,351.167 449.841,351.5 480.5,352.5C 508.833,437.167 537.167,521.833 565.5,606.5C 543.174,607.666 520.841,607.833 498.5,607C 493.475,592.924 488.641,578.758 484,564.5C 483.535,563.069 482.701,561.903 481.5,561C 466.59,559.848 451.59,559.348 436.5,559.5C 421.41,559.348 406.41,559.848 391.5,561C 386.008,575.978 381.008,591.144 376.5,606.5C 354.51,607.5 332.51,607.833 310.5,607.5C 335.894,521.986 361.894,436.652 388.5,351.5 Z M 434.5,442.5 C 430.146,457.912 425.479,473.245 420.5,488.5C 430.817,489.666 441.151,489.832 451.5,489C 446.141,473.924 440.975,458.758 436,443.5C 435.617,442.944 435.117,442.611 434.5,442.5 Z"/></g>
<g><path style="opacity:1" fill="#000000" d="M 591.5,351.5 C 616.502,351.333 641.502,351.5 666.5,352C 679.791,372.081 692.958,392.248 706,412.5C 709.667,415.167 713.333,415.167 717,412.5C 730.042,392.248 743.209,372.081 756.5,352C 781.498,351.5 806.498,351.333 831.5,351.5C 806.353,392.173 780.52,432.506 754,472.5C 750.667,477.167 750.667,481.833 754,486.5C 779.97,526.635 806.137,566.635 832.5,606.5C 807.173,607.666 781.84,607.833 756.5,607C 743.209,586.919 730.042,566.752 717,546.5C 713.333,543.833 709.667,543.833 706,546.5C 692.958,566.752 679.791,586.919 666.5,607C 641.16,607.833 615.827,607.666 590.5,606.5C 616.863,566.635 643.03,526.635 669,486.5C 670.404,484.361 671.237,482.028 671.5,479.5C 669.699,474.185 667.199,469.185 664,464.5C 638.798,427.411 614.631,389.744 591.5,351.5 Z"/></g>
<g><path style="opacity:1" fill="#000000" d="M 879.5,351.5 C 900.833,351.5 922.167,351.5 943.5,351.5C 943.5,436.833 943.5,522.167 943.5,607.5C 922.167,607.5 900.833,607.5 879.5,607.5C 879.5,522.167 879.5,436.833 879.5,351.5 Z"/></g>
<g><path style="opacity:1" fill="#9e9700" d="M 440.5,436.5 C 436.833,433.833 433.167,433.833 429.5,436.5C 430.242,433.862 432.075,432.529 435,432.5C 437.925,432.529 439.758,433.862 440.5,436.5 Z"/></g>
<g><path style="opacity:1" fill="#f1e600" d="M 440.5,436.5 C 447.164,453.654 453.164,471.154 458.5,489C 458.402,491.873 457.068,493.873 454.5,495C 442.167,495.667 429.833,495.667 417.5,495C 414.783,493.741 413.45,491.574 413.5,488.5C 418.266,470.878 423.599,453.545 429.5,436.5C 433.167,433.833 436.833,433.833 440.5,436.5 Z M 434.5,442.5 C 430.146,457.912 425.479,473.245 420.5,488.5C 430.817,489.666 441.151,489.832 451.5,489C 446.141,473.924 440.975,458.758 436,443.5C 435.617,442.944 435.117,442.611 434.5,442.5 Z"/></g>
<g><path style="opacity:0.294" fill="#837d09" d="M 838.5,603.5 C 839.152,604.449 839.486,605.615 839.5,607C 839.693,609.008 839.026,610.508 837.5,611.5C 838.265,608.904 838.599,606.237 838.5,603.5 Z"/></g>
<g><path style="opacity:1" fill="#000000" d="M 76.5,681.5 C 366.5,681.333 656.5,681.5 946.5,682C 947.333,682.833 948.167,683.667 949,684.5C 949.667,707.833 949.667,731.167 949,754.5C 948.167,755.333 947.333,756.167 946.5,757C 656.5,757.667 366.5,757.667 76.5,757C 75.6667,756.167 74.8333,755.333 74,754.5C 73.3333,731.167 73.3333,707.833 74,684.5C 75.045,683.627 75.8783,682.627 76.5,681.5 Z"/></g>
<g><path style="opacity:1" fill="#fef400" d="M 79.5,687.5 C 367.5,687.5 655.5,687.5 943.5,687.5C 943.5,708.833 943.5,730.167 943.5,751.5C 655.5,751.5 367.5,751.5 79.5,751.5C 79.5,730.167 79.5,708.833 79.5,687.5 Z"/></g>
</svg>
